<?xml version="1.0" standalone="no"?>
<!DOCTYPE svg PUBLIC "-//W3C//DTD SVG 1.1//EN" "http://www.w3.org/Graphics/SVG/1.1/DTD/svg11.dtd" >
<svg>
<metadata>
Created by FontForge 20090914 at Sun Mar 12 13:13:28 2017
 By www-data
Copyright fab_william1729 2017
&#226;&#128;&#156;Comic Sans Pixel Mono&#226;&#128;&#157; is based on &#226;&#128;&#156;Sans&#226;&#128;&#157; by &#226;&#128;&#156;Ryan Brotherston&#226;&#128;&#157; (http://fontstruct.com/fontstructors/show/225054/rilencavy)
</metadata>
<defs>
<font id="Comic-Sans-Pixel-Mono" horiz-adv-x="576" >
  <font-face 
    font-family="Comic Sans Pixel Mono"
    font-weight="400"
    font-stretch="normal"
    units-per-em="1024"
    panose-1="0 0 4 0 0 0 0 0 0 0"
    ascent="819"
    descent="-205"
    x-height="448"
    cap-height="640"
    bbox="-192 -256 768 768"
    underline-thickness="51"
    underline-position="126"
    unicode-range="U+0020-U+201D"
  />
    <missing-glyph />
    <glyph glyph-name=".notdef" horiz-adv-x="896" 
d="M320 90v102h-102v-102h102zM421 209v102h-203v-102h203zM320 328v102h-102v-102h102zM421 447v101h-101c-28.667 0 -52.667 -9.66699 -72 -29c-20 -20.667 -30 -44.667 -30 -72h203zM0 0v640h640v-640h-640z" />
    <glyph glyph-name="space" unicode=" " 
 />
    <glyph glyph-name="exclam" unicode="!" 
d="M192 0v128h128v-128h-128zM192 192v448h128v-448h-128z" />
    <glyph glyph-name="quotedbl" unicode="&#x22;" 
d="M64 384v256h128v-256h-128zM256 384v256h128v-256h-128z" />
    <glyph glyph-name="numbersign" unicode="#" 
d="M320 256v128h-64v-128h64zM64 0v128h-64v128h128v128h-64v128h128v128h128v-128h64v128h128v-128h64v-128h-128v-128h128v-128h-192v-128h-128v128h-64v-128h-128z" />
    <glyph glyph-name="dollar" unicode="$" 
d="M384 128v128h-64v-128h64zM192 384v128h-64v-128h64zM192 -128v128h-192v128h192v128h-128v64h-64v192h64v64h64v64h64v128h128v-128h128v-128h-128v-128h128v-64h64v-256h-128v-64h-64v-128h-128z" />
    <glyph glyph-name="percent" unicode="%" 
d="M576 128v64h-64v-64h64zM448 0v64h-64v192h64v64h192v-64h64v-192h-64v-64h-192zM192 448v64h-64v-64h64zM128 0v128h64v128h64v64h-192v64h-64v192h64v64h192v-64h64v-64h64v128h128v-128h-64v-128h-64v-128h-64v-128h-64v-128h-128z" />
    <glyph glyph-name="ampersand" unicode="&#x26;" 
d="M320 128v64h-64v128h-64v-64h-64v-128h192zM320 448v64h-64v-64h64zM64 0v64h-64v256h64v64h64v192h64v64h192v-64h64v-128h-64v-64h-64v-64h64v-64h64v64h128v-128h-64v-128h64v-64h-128v64h-64v-64h-320z" />
    <glyph glyph-name="quotesingle" unicode="'" 
d="M192 384v256h128v-256h-128z" />
    <glyph glyph-name="parenleft" unicode="(" 
d="M256 -256v64h-64v128h-64v448h64v128h64v128h128v-128h-64v-128h-64v-448h64v-64h64v-128h-128z" />
    <glyph glyph-name="parenright" unicode=")" 
d="M128 -256v128h64v64h64v448h-64v128h-64v128h128v-128h64v-128h64v-448h-64v-128h-64v-64h-128z" />
    <glyph glyph-name="asterisk" unicode="*" 
d="M0 320v64h64v128h-64v64h128v64h128v-64h128v-64h-64v-128h64v-64h-128v64h-128v-64h-128z" />
    <glyph glyph-name="plus" unicode="+" 
d="M192 64v128h-128v128h128v128h128v-128h128v-128h-128v-128h-128z" />
    <glyph glyph-name="comma" unicode="," 
d="M192 -128v128h64v64h64v-128h-64v-64h-64z" />
    <glyph glyph-name="hyphen" unicode="-" 
d="M64 192v128h384v-128h-384z" />
    <glyph glyph-name="period" unicode="." 
d="M192 0v128h128v-128h-128z" />
    <glyph glyph-name="slash" unicode="/" 
d="M0 -64v128h64v128h64v128h64v128h64v128h64v64h64v-128h-64v-192h-64v-64h-64v-128h-64v-192h-128z" />
    <glyph glyph-name="zero" unicode="0" 
d="M320 128v384h-128v-384h128zM128 0v128h-64v384h64v64h64v64h192v-128h64v-384h-64v-128h-256z" />
    <glyph glyph-name="one" unicode="1" 
d="M64 0v128h128v320h-128v128h128v64h128v-512h128v-128h-384z" />
    <glyph glyph-name="two" unicode="2" 
d="M0 0v192h64v64h64v64h64v64h128v128h-192v-64h-128v128h128v64h256v-64h64v-192h-64v-64h-64v-64h-128v-64h-64v-64h320v-128h-448z" />
    <glyph glyph-name="three" unicode="3" 
d="M128 0v64h-64v128h128v-64h128v128h-192v128h192v128h-128v-64h-128v128h64v64h256v-64h64v-192h-64v-64h64v-256h-64v-64h-256z" />
    <glyph glyph-name="four" unicode="4" 
d="M128 384v64h64v-64h-64zM256 0v192h-256v128h64v64h64v-64h128v128h-64v128h64v64h128v-320h64v-128h-64v-192h-128z" />
    <glyph glyph-name="five" unicode="5" 
d="M128 0v64h-64v128h64v-64h192v192h-256v320h384v-128h-256v-64h192v-64h64v-256h-64v-64h-64v-64h-192z" />
    <glyph glyph-name="six" unicode="6" 
d="M320 128v128h-128v-128h128zM128 0v64h-64v384h64v64h64v64h64v64h128v-128h-64v-64h-64v-64h128v-64h64v-256h-64v-64h-256z" />
    <glyph glyph-name="seven" unicode="7" 
d="M64 0v128h64v128h64v128h64v64h64v-128h-64v-192h-64v-128h-128zM320 448v64h-320v128h448v-128h-64v-64h-64z" />
    <glyph glyph-name="eight" unicode="8" 
d="M320 128v128h-128v-128h128zM320 384v128h-128v-128h128zM128 0v64h-64v192h64v128h-64v192h64v64h256v-64h64v-192h-64v-128h64v-192h-64v-64h-256z" />
    <glyph glyph-name="nine" unicode="9" 
d="M320 320v192h-128v-192h128zM128 0v128h128v64h-128v64h-64v320h64v64h256v-64h64v-320h-64v-128h-64v-64h-64v-64h-128z" />
    <glyph glyph-name="colon" unicode=":" 
d="M192 64v128h128v-128h-128zM192 320v128h128v-128h-128z" />
    <glyph glyph-name="semicolon" unicode=";" 
d="M128 -64v128h64v64h128v-128h-64v-64h-128zM192 320v128h128v-128h-128z" />
    <glyph glyph-name="less" unicode="&#x3c;" 
d="M192 64v64h-64v64h-64v64h64v64h64v64h64v64h64v-128h-64v-64h-64v-64h64v-64h64v-64h-128z" />
    <glyph glyph-name="equal" unicode="=" 
d="M64 64v128h384v-128h-384zM64 320v128h384v-128h-384z" />
    <glyph glyph-name="greater" unicode="&#x3e;" 
d="M64 64v64h64v64h64v64h-64v64h-64v128h64v-64h64v-64h128v-128h-64v-64h-64v-64h-128z" />
    <glyph glyph-name="question" unicode="?" 
d="M128 0v128h128v-128h-128zM128 192v128h128v64h64v64h-64v64h-128v-64h-128v128h64v64h256v-64h64v-64h64v-128h-64v-64h-64v-64h-64v-64h-128z" />
    <glyph glyph-name="at" unicode="@" 
d="M192 -64v64h-64v64h-64v64h-64v320h64v64h64v64h64v64h384v-64h128v-64h64v-256h-64v-64h-448v64h-64v128h128v-64h64v64h-64v64h128v-64h64v-64h128v128h-64v64h-320v-64h-64v-64h-64v-192h64v-64h64v-64h192v64h128v-128h-64v-64h-320z" />
    <glyph glyph-name="A" unicode="A" 
d="M320 320v64h-64v-64h64zM0 0v128h64v128h64v128h64v128h64v64h64v64h64v-192h64v-320h64v-128h-128v192h-192v-64h-64v-128h-128z" />
    <glyph glyph-name="B" unicode="B" 
d="M256 128v64h64v64h-192v-128h128zM256 384v128h-128v-128h128zM0 0v640h256v-64h128v-192h-64v-64h64v-64h64v-128h-64v-64h-64v-64h-320z" />
    <glyph glyph-name="C" unicode="C" 
d="M128 0v64h-64v64h-64v256h64v64h64v128h128v64h256v-192h-128v64h-128v-64h-64v-128h-64v-192h256v64h128v-128h-128v-64h-256z" />
    <glyph glyph-name="D" unicode="D" 
d="M256 128v64h64v192h-64v64h-64v64h-64v-384h128zM64 0v64h-64v576h128v-64h128v-64h64v-64h64v-64h64v-192h-64v-128h-64v-64h-256z" />
    <glyph glyph-name="E" unicode="E" 
d="M64 0v64h-64v576h448v-128h-320v-128h320v-128h-320v-128h320v-128h-384z" />
    <glyph glyph-name="F" unicode="F" 
d="M64 0v640h384v-128h-256v-128h256v-128h-256v-256h-128z" />
    <glyph glyph-name="G" unicode="G" 
d="M0 0v64h-64v320h64v128h64v64h64v64h256v-64h64v-128h-128v64h-128v-64h-64v-64h-64v-256h256v64h-192v64h64v64h320v-192h-64v-64h-128v-64h-320z" />
    <glyph glyph-name="H" unicode="H" 
d="M0 0v640h128v-256h256v256h128v-640h-128v256h-256v-256h-128z" />
    <glyph glyph-name="I" unicode="I" 
d="M64 0v128h128v384h-128v128h384v-128h-128v-384h128v-128h-384z" />
    <glyph glyph-name="J" unicode="J" 
d="M128 -64v64h-64v64h-64v128h128v-128h128v448h-192v128h448v-128h-128v-512h-64v-64h-192z" />
    <glyph glyph-name="K" unicode="K" 
d="M0 0v640h128v-192h64v64h64v64h64v64h128v-128h-64v-64h-64v-64h-64v-64h-64v-64h64v-64h128v-64h64v-128h-128v64h-64v64h-64v64h-64v-192h-128z" />
    <glyph glyph-name="L" unicode="L" 
d="M64 0v640h128v-512h256v-128h-384z" />
    <glyph glyph-name="M" unicode="M" 
d="M-64 0v192h64v256h64v192h128v-192h64v-192h64v192h64v192h128v-320h64v-320h-128v320h-64v-192h-64v-128h-128v192h-128v-192h-128z" />
    <glyph glyph-name="N" unicode="N" 
d="M-64 0v640h128v-128h64v-64h64v-128h-64v64h-64v-384h-128zM384 0v64h-64v64h-64v64h-64v128h64v-64h64v-64h64v448h128v-640h-128z" />
    <glyph glyph-name="O" unicode="O" 
d="M320 128v64h64v64h64v192h-64v64h-192v-64h-64v-64h-64v-192h64v-64h192zM64 0v64h-64v64h-64v320h64v64h64v64h64v64h320v-64h64v-64h64v-320h-64v-64h-64v-64h-64v-64h-320z" />
    <glyph glyph-name="P" unicode="P" 
d="M256 384v128h-64v-128h64zM64 0v640h256v-64h64v-256h-64v-64h-128v-256h-128z" />
    <glyph glyph-name="Q" unicode="Q" 
d="M384 64v64h64v256h-64v128h-256v-64h-64v-64h-64v-192h64v-64h64v-64h64v128h128v-128h64zM448 -192v64h-64v64h-320v64h-64v64h-64v64h-64v320h64v64h64v64h128v64h256v-64h128v-128h64v-320h-64v-64h-64v-64h64v-64h64v-128h-128z" />
    <glyph glyph-name="R" unicode="R" 
d="M320 320v128h-64v64h-64v-192h128zM64 0v640h256v-64h64v-64h64v-192h-64v-64h-64v-64h64v-64h64v-128h-64v64h-64v64h-64v64h-64v-192h-128z" />
    <glyph glyph-name="S" unicode="S" 
d="M64 0v64h-64v128h128v-64h192v64h64v64h-256v64h-64v192h64v64h64v64h192v-64h64v-64h-256v-128h256v-64h64v-192h-64v-64h-64v-64h-320z" />
    <glyph glyph-name="T" unicode="T" 
d="M192 0v512h-192v128h512v-128h-192v-512h-128z" />
    <glyph glyph-name="U" unicode="U" 
d="M128 0v64h-64v64h-64v512h128v-448h64v-64h128v128h64v384h128v-384h-64v-128h-64v-64h-64v-64h-192z" />
    <glyph glyph-name="V" unicode="V" 
d="M192 0v128h-64v128h-64v192h-64v192h128v-128h64v-256h128v192h64v128h64v64h128v-128h-64v-128h-64v-128h-64v-192h-64v-64h-128z" />
    <glyph glyph-name="W" unicode="W" 
d="M-64 0v192h-64v256h-64v192h128v-192h64v-128h64v128h64v192h128v-256h64v-192h64v192h64v128h64v128h128v-128h-64v-128h-64v-128h-64v-192h-64v-64h-128v192h-64v128h-64v-192h-64v-128h-128z" />
    <glyph glyph-name="X" unicode="X" 
d="M-64 0v128h64v64h64v64h64v128h-64v64h-64v64h-64v128h128v-64h64v-64h64v-64h64v64h64v64h64v64h128v-128h-64v-64h-64v-64h-64v-128h64v-64h64v-64h64v-128h-128v64h-64v128h-128v-64h-64v-64h-64v-64h-128z" />
    <glyph glyph-name="Y" unicode="Y" 
d="M128 0v128h64v192h-64v64h-64v128h-64v128h128v-64h64v-192h128v128h64v128h128v-128h-64v-128h-64v-192h-64v-128h-64v-64h-128z" />
    <glyph glyph-name="Z" unicode="Z" 
d="M0 0v128h64v64h64v128h64v64h64v64h64v64h-320v128h512v-128h-128v-128h-64v-64h-64v-64h-64v-128h320v-128h-512z" />
    <glyph glyph-name="bracketleft" unicode="[" 
d="M128 -256v896h256v-128h-128v-640h128v-128h-256z" />
    <glyph glyph-name="backslash" unicode="\" 
d="M256 -64v128h-64v192h-64v128h-64v128h-64v128h128v-128h64v-128h64v-192h64v-128h64v-128h-128z" />
    <glyph glyph-name="bracketright" unicode="]" 
d="M128 -256v128h128v640h-128v128h256v-896h-256z" />
    <glyph glyph-name="asciicircum" unicode="^" 
d="M64 512v64h64v64h64v64h128v-64h64v-64h64v-64h-128v64h-128v-64h-128z" />
    <glyph glyph-name="underscore" unicode="_" 
d="M0 -128v64h512v-64h-512z" />
    <glyph glyph-name="grave" unicode="`" 
d="M192 512v128h-64v64h128v-64h64v-128h-128z" />
    <glyph glyph-name="a" unicode="a" 
d="M320 128v192h-64v-64h-64v-128h128zM128 0v64h-64v256h64v64h64v64h192v-64h64v-384h-320z" />
    <glyph glyph-name="b" unicode="b" 
d="M320 128v192h-128v-192h128zM64 0v640h128v-192h192v-64h64v-256h-64v-64h-64v-64h-256z" />
    <glyph glyph-name="c" unicode="c" 
d="M128 0v64h-64v256h64v64h64v64h192v-64h64v-128h-64v64h-128v-64h-64v-128h192v64h64v-128h-64v-64h-256z" />
    <glyph glyph-name="d" unicode="d" 
d="M320 128v192h-192v-192h192zM128 0v64h-128v256h64v64h64v64h192v192h128v-640h-320z" />
    <glyph glyph-name="e" unicode="e" 
d="M256 192v64h64v64h-128v-128h64zM128 0v64h-64v256h64v64h64v64h192v-64h64v-192h-128v-64h128v-64h-64v-64h-256z" />
    <glyph glyph-name="f" unicode="f" 
d="M192 -64v384h-128v128h128v128h64v64h192v-128h-128v-64h128v-128h-128v-384h-128z" />
    <glyph glyph-name="g" unicode="g" 
d="M256 128v64h64v128h-128v-192h64zM64 -256v128h192v64h64v64h-192v64h-64v256h64v64h64v64h192v-64h64v-512h-64v-64h-64v-64h-256z" />
    <glyph glyph-name="h" unicode="h" 
d="M64 0v640h128v-192h192v-64h64v-384h-128v320h-64v-64h-64v-256h-128z" />
    <glyph glyph-name="i" unicode="i" 
d="M192 0v448h128v-448h-128zM192 512v128h128v-128h-128z" />
    <glyph glyph-name="j" unicode="j" 
d="M128 -256v128h-64v128h128v-128h64v576h128v-640h-64v-64h-192zM256 512v128h128v-128h-128z" />
    <glyph glyph-name="k" unicode="k" 
d="M64 0v640h128v-320h64v64h64v64h128v-128h-64v-64h-64v-64h64v-64h64v-128h-128v128h-64v64h-64v-192h-128z" />
    <glyph glyph-name="l" unicode="l" 
d="M192 0v640h128v-640h-128z" />
    <glyph glyph-name="m" unicode="m" 
d="M0 0v448h128v-64h64v64h320v-448h-128v320h-64v-320h-128v256h-64v-256h-128z" />
    <glyph glyph-name="n" unicode="n" 
d="M64 0v448h128v-64h64v64h128v-64h64v-384h-128v320h-64v-64h-64v-256h-128z" />
    <glyph glyph-name="o" unicode="o" 
d="M320 128v192h-128v-192h128zM128 0v64h-64v256h64v64h64v64h192v-64h64v-256h-64v-64h-64v-64h-192z" />
    <glyph glyph-name="p" unicode="p" 
d="M320 128v192h-128v-192h128zM64 -256v704h320v-64h64v-320h-64v-64h-192v-256h-128z" />
    <glyph glyph-name="q" unicode="q" 
d="M320 128v192h-64v-64h-64v-128h128zM320 -256v256h-192v64h-64v256h64v64h64v64h256v-704h-128z" />
    <glyph glyph-name="r" unicode="r" 
d="M64 0v448h384v-192h-128v64h-64v-64h-64v-256h-128z" />
    <glyph glyph-name="s" unicode="s" 
d="M64 0v128h192v64h-128v64h-64v128h64v64h256v-128h-192v-64h128v-64h64v-128h-64v-64h-256z" />
    <glyph glyph-name="t" unicode="t" 
d="M192 0v320h-128v128h128v128h128v-128h128v-128h-128v-320h-128z" />
    <glyph glyph-name="u" unicode="u" 
d="M128 0v64h-64v384h128v-320h128v320h128v-448h-320z" />
    <glyph glyph-name="v" unicode="v" 
d="M192 0v128h-64v192h-64v128h128v-128h128v128h128v-128h-64v-192h-64v-128h-128z" />
    <glyph glyph-name="w" unicode="w" 
d="M64 0v128h-64v320h128v-192h64v192h128v-256h64v256h128v-192h-64v-192h-64v-64h-64v64h-64v128h-64v-128h-64v-64h-64z" />
    <glyph glyph-name="x" unicode="x" 
d="M64 0v128h64v64h64v64h-64v64h-64v128h128v-64h64v-64h64v64h64v64h128v-128h-64v-64h-64v-64h64v-64h64v-128h-128v64h-64v64h-64v-64h-64v-64h-128z" />
    <glyph glyph-name="y" unicode="y" 
d="M64 -256v192h64v256h-64v128h-64v128h128v-128h64v-128h64v192h64v64h128v-128h-64v-128h-64v-192h-64v-128h-64v-128h-128z" />
    <glyph glyph-name="z" unicode="z" 
d="M64 0v128h64v64h64v64h64v64h-192v128h384v-128h-64v-64h-64v-64h-64v-64h192v-128h-384z" />
    <glyph glyph-name="braceleft" unicode="{" 
d="M192 -256v64h-64v320h-64v128h64v320h64v64h192v-128h-128v-256h-64v-64h64v-320h128v-128h-192z" />
    <glyph glyph-name="bar" unicode="|" 
d="M192 -256v896h128v-896h-128z" />
    <glyph glyph-name="braceright" unicode="}" 
d="M64 -256v128h128v320h64v64h-64v256h-128v128h192v-64h64v-320h64v-64h-64v-384h-64v-64h-192z" />
    <glyph glyph-name="asciitilde" unicode="~" 
d="M0 192v128h64v64h192v-128h-64v64h-64v-64h-64v-64h-64zM256 192v64h64v64h64v64h64v-128h-64v-64h-128z" />
    <glyph glyph-name="quoteleft" unicode="&#x2018;" 
d="M192 384v256h128v-256h-128z" />
    <glyph glyph-name="quoteright" unicode="&#x2019;" 
d="M192 384v256h128v-256h-128z" />
    <glyph glyph-name="quotedblleft" unicode="&#x201c;" 
d="M128 384v256h128v-256h-128zM320 384v256h128v-256h-128z" />
    <glyph glyph-name="quotedblright" unicode="&#x201d;" 
d="M64 384v256h128v-256h-128zM256 384v256h128v-256h-128z" />
    <glyph glyph-name="glyph1" 
 />
    <glyph glyph-name="glyph2" 
 />
  </font>
</defs>
</svg>
